<svg xmlns="http://www.w3.org/2000/svg" viewBox="0 0 1200 420">
  <rect width="1200" height="420" rx="8" fill="#080a0d"/>

  <g stroke="#252c33" stroke-width="1">
    <path d="M0 70H1200M0 140H1200M0 210H1200M0 280H1200M0 350H1200"/>
  </g>

  <!-- connections -->
  <g stroke="#59636d" stroke-width="2" fill="none">
    <path d="M600 210L250 100"/>
    <path d="M600 210L950 100"/>
    <path d="M600 210L250 320"/>
    <path d="M600 210L950 320"/>
    <path d="M600 210L600 80"/>
  </g>

  <!-- nodes -->
  <g fill="#080a0d" stroke="#c7a45d" stroke-width="2">
    <circle cx="600" cy="210" r="66"/>
    <circle cx="250" cy="100" r="48"/>
    <circle cx="950" cy="100" r="48"/>
    <circle cx="250" cy="320" r="48"/>
    <circle cx="950" cy="320" r="48"/>
    <circle cx="600" cy="80" r="48"/>
  </g>

  <g font-family="Arial, Helvetica, sans-serif" text-anchor="middle">
    <g fill="#eef0f2" font-size="17" font-weight="700">
      <text x="600" y="205">AN-01</text>
      <text x="600" y="227">SYSTEMS</text>
      <text x="250" y="105">AEROSPACE</text>
      <text x="950" y="105">COMPUTATION</text>
      <text x="250" y="325">PHYSICS</text>
      <text x="950" y="325">CHESS</text>
      <text x="600" y="85">MATHEMATICS</text>
    </g>

    <g fill="#7f8994" font-family="monospace" font-size="11">
      <text x="600" y="35">ENGINEERING SYSTEM MAP / 01</text>
      <text x="250" y="170">DESIGN</text>
      <text x="950" y="170">CODE</text>
      <text x="250" y="390">MODEL</text>
      <text x="950" y="390">CALCULATE</text>
      <text x="600" y="140">REASON</text>
    </g>
  </g>
</svg>
